G04 #@! TF.GenerationSoftware,KiCad,Pcbnew,(5.0.0-3-g5ebb6b6)*
G04 #@! TF.CreationDate,2018-12-23T11:03:37-08:00*
G04 #@! TF.ProjectId,PSU New,505355204E65772E6B696361645F7063,rev?*
G04 #@! TF.SameCoordinates,Original*
G04 #@! TF.FileFunction,Soldermask,Top*
G04 #@! TF.FilePolarity,Negative*
%FSLAX46Y46*%
G04 Gerber Fmt 4.6, Leading zero omitted, Abs format (unit mm)*
G04 Created by KiCad (PCBNEW (5.0.0-3-g5ebb6b6)) date Sunday, December 23, 2018 at 11:03:37 AM*
%MOMM*%
%LPD*%
G01*
G04 APERTURE LIST*
%ADD10C,0.150000*%
%ADD11C,3.100000*%
%ADD12C,7.400000*%
%ADD13C,1.200000*%
%ADD14C,3.900000*%
%ADD15C,3.000000*%
%ADD16R,3.000000X3.000000*%
%ADD17O,3.100000X3.700000*%
%ADD18R,3.100000X3.700000*%
%ADD19O,2.000000X2.000000*%
%ADD20R,2.000000X2.000000*%
%ADD21C,2.000000*%
%ADD22O,2.100000X2.100000*%
%ADD23R,2.100000X2.100000*%
G04 APERTURE END LIST*
D10*
X179000000Y-143000000D02*
X179000000Y-143900000D01*
X179000000Y-143000000D02*
X210000000Y-143000000D01*
X230000000Y-101000000D02*
X235900000Y-101000000D01*
X230000000Y-99000000D02*
X230000000Y-101000000D01*
X210000000Y-140000000D02*
X210000000Y-143000000D01*
X210000000Y-140000000D02*
X235900000Y-140000000D01*
X235900000Y-101000000D02*
X235900000Y-140000000D01*
X181000000Y-99000000D02*
X230000000Y-99000000D01*
X56100000Y-117900000D02*
X120000000Y-117900000D01*
X120000000Y-117900000D02*
X120000000Y-143900000D01*
X56100000Y-50100000D02*
X181000000Y-50100000D01*
X181000000Y-50100000D02*
X181000000Y-99000000D01*
X56100000Y-50100000D02*
X56100000Y-117900000D01*
X120000000Y-143900000D02*
X179000000Y-143900000D01*
D11*
G04 #@! TO.C,REF\002A\002A*
X233500000Y-126000000D03*
G04 #@! TD*
G04 #@! TO.C,REF\002A\002A*
X58500000Y-52500000D03*
G04 #@! TD*
D12*
G04 #@! TO.C,REF\002A\002A*
X134025000Y-65175000D03*
D13*
X136650000Y-65175000D03*
X135881155Y-67031155D03*
X134025000Y-67800000D03*
X132168845Y-67031155D03*
X131400000Y-65175000D03*
X132168845Y-63318845D03*
X134025000Y-62550000D03*
X135881155Y-63318845D03*
G04 #@! TD*
D14*
G04 #@! TO.C,REF\002A\002A*
X134025000Y-109625000D03*
G04 #@! TD*
D15*
G04 #@! TO.C,REF\002A\002A*
X177000000Y-92000000D03*
X172000000Y-92000000D03*
X167000000Y-92000000D03*
X162000000Y-92000000D03*
X157000000Y-92000000D03*
X152000000Y-92000000D03*
D16*
X147000000Y-92000000D03*
G04 #@! TD*
D11*
G04 #@! TO.C,REF\002A\002A*
X124000000Y-141500000D03*
G04 #@! TD*
D17*
G04 #@! TO.C,PicoPSU*
X139500000Y-122700000D03*
X143700000Y-122700000D03*
X147900000Y-122700000D03*
X152100000Y-122700000D03*
X156300000Y-122700000D03*
X160500000Y-122700000D03*
X164700000Y-122700000D03*
X168900000Y-122700000D03*
X173100000Y-122700000D03*
X177300000Y-122700000D03*
X139500000Y-128200000D03*
X143700000Y-128200000D03*
X147900000Y-128200000D03*
X152100000Y-128200000D03*
X156300000Y-128200000D03*
X160500000Y-128200000D03*
X164700000Y-128200000D03*
X168900000Y-128200000D03*
X173100000Y-128200000D03*
D18*
X177300000Y-128200000D03*
G04 #@! TD*
D19*
G04 #@! TO.C,74LS04*
X208520000Y-114280000D03*
X200900000Y-129520000D03*
X208520000Y-116820000D03*
X200900000Y-126980000D03*
X208520000Y-119360000D03*
X200900000Y-124440000D03*
X208520000Y-121900000D03*
X200900000Y-121900000D03*
X208520000Y-124440000D03*
X200900000Y-119360000D03*
X208520000Y-126980000D03*
X200900000Y-116820000D03*
X208520000Y-129520000D03*
D20*
X200900000Y-114280000D03*
G04 #@! TD*
D19*
G04 #@! TO.C,4.7K*
X193228734Y-114280000D03*
D21*
X193228734Y-121900000D03*
G04 #@! TD*
D22*
G04 #@! TO.C,Fan*
X102908100Y-53908960D03*
D23*
X100368100Y-53908960D03*
G04 #@! TD*
D11*
G04 #@! TO.C,REF\002A\002A*
X178500000Y-52500000D03*
G04 #@! TD*
D16*
G04 #@! TO.C,REF\002A\002A*
X147000000Y-62000000D03*
D15*
X152000000Y-62000000D03*
X157000000Y-62000000D03*
X162000000Y-62000000D03*
X167000000Y-62000000D03*
X172000000Y-62000000D03*
X177000000Y-62000000D03*
G04 #@! TD*
D14*
G04 #@! TO.C,REF\002A\002A*
X64175000Y-109625000D03*
G04 #@! TD*
D13*
G04 #@! TO.C,REF\002A\002A*
X66031155Y-63318845D03*
X64175000Y-62550000D03*
X62318845Y-63318845D03*
X61550000Y-65175000D03*
X62318845Y-67031155D03*
X64175000Y-67800000D03*
X66031155Y-67031155D03*
X66800000Y-65175000D03*
D12*
X64175000Y-65175000D03*
G04 #@! TD*
M02*
