M48
;DRILL file {KiCad (5.0.0-3-g5ebb6b6)} date Sunday, December 23, 2018 at 11:03:42 AM
;FORMAT={3:3/ absolute / metric / suppress leading zeros}
FMAT,2
METRIC,TZ
T1C0.500
T2C0.800
T3C1.000
T4C1.300
T5C1.400
T6C3.500
T7C2.700
T8C3.500
%
G90
G05
M71
T1
X61550Y-65175
X62319Y-63319
X62319Y-67031
X64175Y-62550
X64175Y-67800
X66031Y-63319
X66031Y-67031
X66800Y-65175
X131400Y-65175
X132169Y-63319
X132169Y-67031
X134025Y-62550
X134025Y-67800
X135881Y-63319
X135881Y-67031
X136650Y-65175
T2
X193229Y-114280
X193229Y-121900
X200900Y-114280
X200900Y-116820
X200900Y-119360
X200900Y-121900
X200900Y-124440
X200900Y-126980
X200900Y-129520
X208520Y-114280
X208520Y-116820
X208520Y-119360
X208520Y-121900
X208520Y-124440
X208520Y-126980
X208520Y-129520
T3
X100368Y-53909
X102908Y-53909
T4
X147000Y-62000
X152000Y-62000
X157000Y-62000
X162000Y-62000
X167000Y-62000
X172000Y-62000
X177000Y-62000
X147000Y-92000
X152000Y-92000
X157000Y-92000
X162000Y-92000
X167000Y-92000
X172000Y-92000
X177000Y-92000
T5
X139500Y-122700
X139500Y-128200
X143700Y-122700
X143700Y-128200
X147900Y-122700
X147900Y-128200
X152100Y-122700
X152100Y-128200
X156300Y-122700
X156300Y-128200
X160500Y-122700
X160500Y-128200
X164700Y-122700
X164700Y-128200
X168900Y-122700
X168900Y-128200
X173100Y-122700
X173100Y-128200
X177300Y-122700
X177300Y-128200
T6
X64175Y-65175
X134025Y-65175
T7
X178500Y-52500
X233500Y-126000
X58500Y-52500
X124000Y-141500
T8
X134025Y-109625
X64175Y-109625
T0
M30
