G04 #@! TF.GenerationSoftware,KiCad,Pcbnew,(5.0.0-3-g5ebb6b6)*
G04 #@! TF.CreationDate,2018-12-23T11:03:37-08:00*
G04 #@! TF.ProjectId,PSU New,505355204E65772E6B696361645F7063,rev?*
G04 #@! TF.SameCoordinates,Original*
G04 #@! TF.FileFunction,Copper,L1,Top,Signal*
G04 #@! TF.FilePolarity,Positive*
%FSLAX46Y46*%
G04 Gerber Fmt 4.6, Leading zero omitted, Abs format (unit mm)*
G04 Created by KiCad (PCBNEW (5.0.0-3-g5ebb6b6)) date Sunday, December 23, 2018 at 11:03:37 AM*
%MOMM*%
%LPD*%
G01*
G04 APERTURE LIST*
G04 #@! TA.AperFunction,NonConductor*
%ADD10C,0.150000*%
G04 #@! TD*
G04 #@! TA.AperFunction,ComponentPad*
%ADD11C,7.000000*%
G04 #@! TD*
G04 #@! TA.AperFunction,ComponentPad*
%ADD12C,0.800000*%
G04 #@! TD*
G04 #@! TA.AperFunction,ComponentPad*
%ADD13C,2.600000*%
G04 #@! TD*
G04 #@! TA.AperFunction,ComponentPad*
%ADD14R,2.600000X2.600000*%
G04 #@! TD*
G04 #@! TA.AperFunction,ComponentPad*
%ADD15O,2.700000X3.300000*%
G04 #@! TD*
G04 #@! TA.AperFunction,ComponentPad*
%ADD16R,2.700000X3.300000*%
G04 #@! TD*
G04 #@! TA.AperFunction,ComponentPad*
%ADD17O,1.600000X1.600000*%
G04 #@! TD*
G04 #@! TA.AperFunction,ComponentPad*
%ADD18R,1.600000X1.600000*%
G04 #@! TD*
G04 #@! TA.AperFunction,ComponentPad*
%ADD19C,1.600000*%
G04 #@! TD*
G04 #@! TA.AperFunction,ComponentPad*
%ADD20O,1.700000X1.700000*%
G04 #@! TD*
G04 #@! TA.AperFunction,ComponentPad*
%ADD21R,1.700000X1.700000*%
G04 #@! TD*
G04 #@! TA.AperFunction,Conductor*
%ADD22C,0.250000*%
G04 #@! TD*
G04 #@! TA.AperFunction,Conductor*
%ADD23C,0.800000*%
G04 #@! TD*
G04 #@! TA.AperFunction,Conductor*
%ADD24C,3.800000*%
G04 #@! TD*
G04 #@! TA.AperFunction,Conductor*
%ADD25C,3.500000*%
G04 #@! TD*
G04 APERTURE END LIST*
D10*
X179000000Y-143000000D02*
X179000000Y-143900000D01*
X179000000Y-143000000D02*
X210000000Y-143000000D01*
X230000000Y-101000000D02*
X235900000Y-101000000D01*
X230000000Y-99000000D02*
X230000000Y-101000000D01*
X210000000Y-140000000D02*
X210000000Y-143000000D01*
X210000000Y-140000000D02*
X235900000Y-140000000D01*
X235900000Y-101000000D02*
X235900000Y-140000000D01*
X181000000Y-99000000D02*
X230000000Y-99000000D01*
X56100000Y-117900000D02*
X120000000Y-117900000D01*
X120000000Y-117900000D02*
X120000000Y-143900000D01*
X56100000Y-50100000D02*
X181000000Y-50100000D01*
X181000000Y-50100000D02*
X181000000Y-99000000D01*
X56100000Y-50100000D02*
X56100000Y-117900000D01*
X120000000Y-143900000D02*
X179000000Y-143900000D01*
D11*
G04 #@! TO.P,REF\002A\002A,1*
G04 #@! TO.N,N/C*
X134025000Y-65175000D03*
D12*
X136650000Y-65175000D03*
X135881155Y-67031155D03*
X134025000Y-67800000D03*
X132168845Y-67031155D03*
X131400000Y-65175000D03*
X132168845Y-63318845D03*
X134025000Y-62550000D03*
X135881155Y-63318845D03*
G04 #@! TD*
D13*
G04 #@! TO.P,REF\002A\002A,7*
G04 #@! TO.N,N/C*
X177000000Y-92000000D03*
G04 #@! TO.P,REF\002A\002A,6*
X172000000Y-92000000D03*
G04 #@! TO.P,REF\002A\002A,5*
X167000000Y-92000000D03*
G04 #@! TO.P,REF\002A\002A,4*
X162000000Y-92000000D03*
G04 #@! TO.P,REF\002A\002A,3*
X157000000Y-92000000D03*
G04 #@! TO.P,REF\002A\002A,2*
X152000000Y-92000000D03*
D14*
G04 #@! TO.P,REF\002A\002A,1*
X147000000Y-92000000D03*
G04 #@! TD*
D15*
G04 #@! TO.P,PicoPSU,20*
G04 #@! TO.N,N/C*
X139500000Y-122700000D03*
G04 #@! TO.P,PicoPSU,19*
X143700000Y-122700000D03*
G04 #@! TO.P,PicoPSU,18*
X147900000Y-122700000D03*
G04 #@! TO.P,PicoPSU,17*
X152100000Y-122700000D03*
G04 #@! TO.P,PicoPSU,16*
X156300000Y-122700000D03*
G04 #@! TO.P,PicoPSU,15*
X160500000Y-122700000D03*
G04 #@! TO.P,PicoPSU,14*
X164700000Y-122700000D03*
G04 #@! TO.P,PicoPSU,13*
X168900000Y-122700000D03*
G04 #@! TO.P,PicoPSU,12*
X173100000Y-122700000D03*
G04 #@! TO.P,PicoPSU,11*
X177300000Y-122700000D03*
G04 #@! TO.P,PicoPSU,10*
X139500000Y-128200000D03*
G04 #@! TO.P,PicoPSU,9*
X143700000Y-128200000D03*
G04 #@! TO.P,PicoPSU,8*
X147900000Y-128200000D03*
G04 #@! TO.P,PicoPSU,7*
X152100000Y-128200000D03*
G04 #@! TO.P,PicoPSU,6*
X156300000Y-128200000D03*
G04 #@! TO.P,PicoPSU,5*
X160500000Y-128200000D03*
G04 #@! TO.P,PicoPSU,4*
X164700000Y-128200000D03*
G04 #@! TO.P,PicoPSU,3*
X168900000Y-128200000D03*
G04 #@! TO.P,PicoPSU,2*
X173100000Y-128200000D03*
D16*
G04 #@! TO.P,PicoPSU,1*
X177300000Y-128200000D03*
G04 #@! TD*
D17*
G04 #@! TO.P,74LS04,14*
G04 #@! TO.N,N/C*
X208520000Y-114280000D03*
G04 #@! TO.P,74LS04,7*
X200900000Y-129520000D03*
G04 #@! TO.P,74LS04,13*
X208520000Y-116820000D03*
G04 #@! TO.P,74LS04,6*
X200900000Y-126980000D03*
G04 #@! TO.P,74LS04,12*
X208520000Y-119360000D03*
G04 #@! TO.P,74LS04,5*
X200900000Y-124440000D03*
G04 #@! TO.P,74LS04,11*
X208520000Y-121900000D03*
G04 #@! TO.P,74LS04,4*
X200900000Y-121900000D03*
G04 #@! TO.P,74LS04,10*
X208520000Y-124440000D03*
G04 #@! TO.P,74LS04,3*
X200900000Y-119360000D03*
G04 #@! TO.P,74LS04,9*
X208520000Y-126980000D03*
G04 #@! TO.P,74LS04,2*
X200900000Y-116820000D03*
G04 #@! TO.P,74LS04,8*
X208520000Y-129520000D03*
D18*
G04 #@! TO.P,74LS04,1*
X200900000Y-114280000D03*
G04 #@! TD*
D17*
G04 #@! TO.P,4.7K,2*
G04 #@! TO.N,N/C*
X193228734Y-114280000D03*
D19*
G04 #@! TO.P,4.7K,1*
X193228734Y-121900000D03*
G04 #@! TD*
D20*
G04 #@! TO.P,Fan,2*
G04 #@! TO.N,N/C*
X102908100Y-53908960D03*
D21*
G04 #@! TO.P,Fan,1*
X100368100Y-53908960D03*
G04 #@! TD*
D14*
G04 #@! TO.P,REF\002A\002A,1*
G04 #@! TO.N,N/C*
X147000000Y-62000000D03*
D13*
G04 #@! TO.P,REF\002A\002A,2*
X152000000Y-62000000D03*
G04 #@! TO.P,REF\002A\002A,3*
X157000000Y-62000000D03*
G04 #@! TO.P,REF\002A\002A,4*
X162000000Y-62000000D03*
G04 #@! TO.P,REF\002A\002A,5*
X167000000Y-62000000D03*
G04 #@! TO.P,REF\002A\002A,6*
X172000000Y-62000000D03*
G04 #@! TO.P,REF\002A\002A,7*
X177000000Y-62000000D03*
G04 #@! TD*
D12*
G04 #@! TO.P,REF\002A\002A,1*
G04 #@! TO.N,N/C*
X66031155Y-63318845D03*
X64175000Y-62550000D03*
X62318845Y-63318845D03*
X61550000Y-65175000D03*
X62318845Y-67031155D03*
X64175000Y-67800000D03*
X66031155Y-67031155D03*
X66800000Y-65175000D03*
D11*
X64175000Y-65175000D03*
G04 #@! TD*
D22*
G04 #@! TO.N,*
X193363925Y-114280000D02*
X193228734Y-114144809D01*
D23*
X200900000Y-114280000D02*
X193100000Y-114280000D01*
X172000000Y-92000000D02*
X172000000Y-104100000D01*
D22*
X172000000Y-104000000D02*
X172100000Y-104100000D01*
D23*
X172000000Y-104100000D02*
X208520000Y-104100000D01*
X208520000Y-104100000D02*
X208520000Y-114280000D01*
D22*
X208600000Y-104100000D02*
X208520000Y-104180000D01*
D23*
X200900000Y-116820000D02*
X164700000Y-116820000D01*
X164700000Y-116820000D02*
X164700000Y-122700000D01*
X143700000Y-128200000D02*
X143700000Y-125450000D01*
X143700000Y-125450000D02*
X193228734Y-125450000D01*
X193228734Y-125450000D02*
X193228734Y-121900000D01*
D22*
X193200000Y-125400000D02*
X193228734Y-125371266D01*
D24*
X134025000Y-92000000D02*
X134025000Y-65175000D01*
D22*
X134300000Y-92000000D02*
X134025000Y-91725000D01*
D24*
X162000000Y-92000000D02*
X134025000Y-92000000D01*
X139500000Y-128200000D02*
X123000000Y-128200000D01*
D25*
X152000000Y-53000000D02*
X152000000Y-62000000D01*
D22*
X151900000Y-54900000D02*
X152000000Y-55000000D01*
D24*
X157000000Y-62000000D02*
X157000000Y-53000000D01*
X147000000Y-62000000D02*
X147000000Y-53000000D01*
D22*
X147000000Y-55900000D02*
X146900000Y-55800000D01*
D25*
X123000000Y-55800000D02*
X157000000Y-55800000D01*
D24*
X123000000Y-53000000D02*
X157000000Y-53000000D01*
X123000000Y-128200000D02*
X123000000Y-53000000D01*
X127500000Y-121600000D02*
X133500000Y-127600000D01*
D23*
X102908100Y-53908960D02*
X122091040Y-53908960D01*
D24*
X157000000Y-62000000D02*
X147000000Y-62000000D01*
D25*
X157000000Y-58800000D02*
X147000000Y-58800000D01*
X123000000Y-58900000D02*
X157000000Y-58900000D01*
X125700000Y-128200000D02*
X125700000Y-53000000D01*
D24*
X128000000Y-128200000D02*
X128000000Y-53000000D01*
X128300000Y-117900000D02*
X138300000Y-127900000D01*
G04 #@! TD*
M02*
