G04 #@! TF.GenerationSoftware,KiCad,Pcbnew,(6.0.6)*
G04 #@! TF.CreationDate,2022-12-15T15:42:19-06:00*
G04 #@! TF.ProjectId,X6800 PicoPSU v2,58363830-3020-4506-9963-6f5053552076,rev?*
G04 #@! TF.SameCoordinates,Original*
G04 #@! TF.FileFunction,Soldermask,Top*
G04 #@! TF.FilePolarity,Negative*
%FSLAX46Y46*%
G04 Gerber Fmt 4.6, Leading zero omitted, Abs format (unit mm)*
G04 Created by KiCad (PCBNEW (6.0.6)) date 2022-12-15 15:42:19*
%MOMM*%
%LPD*%
G01*
G04 APERTURE LIST*
G04 Aperture macros list*
%AMRoundRect*
0 Rectangle with rounded corners*
0 $1 Rounding radius*
0 $2 $3 $4 $5 $6 $7 $8 $9 X,Y pos of 4 corners*
0 Add a 4 corners polygon primitive as box body*
4,1,4,$2,$3,$4,$5,$6,$7,$8,$9,$2,$3,0*
0 Add four circle primitives for the rounded corners*
1,1,$1+$1,$2,$3*
1,1,$1+$1,$4,$5*
1,1,$1+$1,$6,$7*
1,1,$1+$1,$8,$9*
0 Add four rect primitives between the rounded corners*
20,1,$1+$1,$2,$3,$4,$5,0*
20,1,$1+$1,$4,$5,$6,$7,0*
20,1,$1+$1,$6,$7,$8,$9,0*
20,1,$1+$1,$8,$9,$2,$3,0*%
G04 Aperture macros list end*
%ADD10C,3.100000*%
%ADD11C,7.400000*%
%ADD12C,1.200000*%
%ADD13C,3.900000*%
%ADD14C,3.000000*%
%ADD15RoundRect,0.200000X-1.300000X-1.300000X1.300000X-1.300000X1.300000X1.300000X-1.300000X1.300000X0*%
%ADD16O,3.100000X3.700000*%
%ADD17RoundRect,0.200000X1.350000X1.650000X-1.350000X1.650000X-1.350000X-1.650000X1.350000X-1.650000X0*%
%ADD18O,2.000000X2.000000*%
%ADD19RoundRect,0.200000X-0.800000X-0.800000X0.800000X-0.800000X0.800000X0.800000X-0.800000X0.800000X0*%
%ADD20C,2.000000*%
%ADD21O,2.100000X2.100000*%
%ADD22RoundRect,0.200000X0.850000X-0.850000X0.850000X0.850000X-0.850000X0.850000X-0.850000X-0.850000X0*%
G04 APERTURE END LIST*
D10*
X233500000Y-126000000D03*
X58500000Y-52500000D03*
D11*
X134025000Y-65175000D03*
D12*
X136650000Y-65175000D03*
X135881155Y-67031155D03*
X134025000Y-67800000D03*
X132168845Y-67031155D03*
X131400000Y-65175000D03*
X132168845Y-63318845D03*
X134025000Y-62550000D03*
X135881155Y-63318845D03*
D13*
X134025000Y-109625000D03*
D14*
X177000000Y-92000000D03*
X172000000Y-92000000D03*
X167000000Y-92000000D03*
X162000000Y-92000000D03*
X157000000Y-92000000D03*
X152000000Y-92000000D03*
D15*
X147000000Y-92000000D03*
D10*
X124000000Y-141500000D03*
D16*
X139500000Y-122700000D03*
X143700000Y-122700000D03*
X147900000Y-122700000D03*
X152100000Y-122700000D03*
X156300000Y-122700000D03*
X160500000Y-122700000D03*
X164700000Y-122700000D03*
X168900000Y-122700000D03*
X173100000Y-122700000D03*
X177300000Y-122700000D03*
X139500000Y-128200000D03*
X143700000Y-128200000D03*
X147900000Y-128200000D03*
X152100000Y-128200000D03*
X156300000Y-128200000D03*
X160500000Y-128200000D03*
X164700000Y-128200000D03*
X168900000Y-128200000D03*
X173100000Y-128200000D03*
D17*
X177300000Y-128200000D03*
D18*
X208520000Y-114280000D03*
X200900000Y-129520000D03*
X208520000Y-116820000D03*
X200900000Y-126980000D03*
X208520000Y-119360000D03*
X200900000Y-124440000D03*
X208520000Y-121900000D03*
X200900000Y-121900000D03*
X208520000Y-124440000D03*
X200900000Y-119360000D03*
X208520000Y-126980000D03*
X200900000Y-116820000D03*
X208520000Y-129520000D03*
D19*
X200900000Y-114280000D03*
D18*
X193228734Y-114280000D03*
D20*
X193228734Y-121900000D03*
D21*
X102908100Y-53908960D03*
D22*
X100368100Y-53908960D03*
D10*
X178500000Y-52500000D03*
D15*
X147000000Y-62000000D03*
D14*
X152000000Y-62000000D03*
X157000000Y-62000000D03*
X162000000Y-62000000D03*
X167000000Y-62000000D03*
X172000000Y-62000000D03*
X177000000Y-62000000D03*
D13*
X64175000Y-109625000D03*
D12*
X66031155Y-63318845D03*
X64175000Y-62550000D03*
X62318845Y-63318845D03*
X61550000Y-65175000D03*
X62318845Y-67031155D03*
X64175000Y-67800000D03*
X66031155Y-67031155D03*
X66800000Y-65175000D03*
D11*
X64175000Y-65175000D03*
M02*
