G04 #@! TF.GenerationSoftware,KiCad,Pcbnew,(6.0.6)*
G04 #@! TF.CreationDate,2022-12-15T15:42:19-06:00*
G04 #@! TF.ProjectId,X6800 PicoPSU v2,58363830-3020-4506-9963-6f5053552076,rev?*
G04 #@! TF.SameCoordinates,Original*
G04 #@! TF.FileFunction,Copper,L1,Top*
G04 #@! TF.FilePolarity,Positive*
%FSLAX46Y46*%
G04 Gerber Fmt 4.6, Leading zero omitted, Abs format (unit mm)*
G04 Created by KiCad (PCBNEW (6.0.6)) date 2022-12-15 15:42:19*
%MOMM*%
%LPD*%
G01*
G04 APERTURE LIST*
G04 #@! TA.AperFunction,ComponentPad*
%ADD10C,7.000000*%
G04 #@! TD*
G04 #@! TA.AperFunction,ComponentPad*
%ADD11C,0.800000*%
G04 #@! TD*
G04 #@! TA.AperFunction,ComponentPad*
%ADD12C,2.600000*%
G04 #@! TD*
G04 #@! TA.AperFunction,ComponentPad*
%ADD13R,2.600000X2.600000*%
G04 #@! TD*
G04 #@! TA.AperFunction,ComponentPad*
%ADD14O,2.700000X3.300000*%
G04 #@! TD*
G04 #@! TA.AperFunction,ComponentPad*
%ADD15R,2.700000X3.300000*%
G04 #@! TD*
G04 #@! TA.AperFunction,ComponentPad*
%ADD16O,1.600000X1.600000*%
G04 #@! TD*
G04 #@! TA.AperFunction,ComponentPad*
%ADD17R,1.600000X1.600000*%
G04 #@! TD*
G04 #@! TA.AperFunction,ComponentPad*
%ADD18C,1.600000*%
G04 #@! TD*
G04 #@! TA.AperFunction,ComponentPad*
%ADD19O,1.700000X1.700000*%
G04 #@! TD*
G04 #@! TA.AperFunction,ComponentPad*
%ADD20R,1.700000X1.700000*%
G04 #@! TD*
G04 #@! TA.AperFunction,Conductor*
%ADD21C,0.250000*%
G04 #@! TD*
G04 #@! TA.AperFunction,Conductor*
%ADD22C,0.800000*%
G04 #@! TD*
G04 #@! TA.AperFunction,Conductor*
%ADD23C,3.800000*%
G04 #@! TD*
G04 #@! TA.AperFunction,Conductor*
%ADD24C,3.500000*%
G04 #@! TD*
G04 APERTURE END LIST*
D10*
X134025000Y-65175000D03*
D11*
X136650000Y-65175000D03*
X135881155Y-67031155D03*
X134025000Y-67800000D03*
X132168845Y-67031155D03*
X131400000Y-65175000D03*
X132168845Y-63318845D03*
X134025000Y-62550000D03*
X135881155Y-63318845D03*
D12*
X177000000Y-92000000D03*
X172000000Y-92000000D03*
X167000000Y-92000000D03*
X162000000Y-92000000D03*
X157000000Y-92000000D03*
X152000000Y-92000000D03*
D13*
X147000000Y-92000000D03*
D14*
X139500000Y-122700000D03*
X143700000Y-122700000D03*
X147900000Y-122700000D03*
X152100000Y-122700000D03*
X156300000Y-122700000D03*
X160500000Y-122700000D03*
X164700000Y-122700000D03*
X168900000Y-122700000D03*
X173100000Y-122700000D03*
X177300000Y-122700000D03*
X139500000Y-128200000D03*
X143700000Y-128200000D03*
X147900000Y-128200000D03*
X152100000Y-128200000D03*
X156300000Y-128200000D03*
X160500000Y-128200000D03*
X164700000Y-128200000D03*
X168900000Y-128200000D03*
X173100000Y-128200000D03*
D15*
X177300000Y-128200000D03*
D16*
X208520000Y-114280000D03*
X200900000Y-129520000D03*
X208520000Y-116820000D03*
X200900000Y-126980000D03*
X208520000Y-119360000D03*
X200900000Y-124440000D03*
X208520000Y-121900000D03*
X200900000Y-121900000D03*
X208520000Y-124440000D03*
X200900000Y-119360000D03*
X208520000Y-126980000D03*
X200900000Y-116820000D03*
X208520000Y-129520000D03*
D17*
X200900000Y-114280000D03*
D16*
X193228734Y-114280000D03*
D18*
X193228734Y-121900000D03*
D19*
X102908100Y-53908960D03*
D20*
X100368100Y-53908960D03*
D13*
X147000000Y-62000000D03*
D12*
X152000000Y-62000000D03*
X157000000Y-62000000D03*
X162000000Y-62000000D03*
X167000000Y-62000000D03*
X172000000Y-62000000D03*
X177000000Y-62000000D03*
D11*
X66031155Y-63318845D03*
X64175000Y-62550000D03*
X62318845Y-63318845D03*
X61550000Y-65175000D03*
X62318845Y-67031155D03*
X64175000Y-67800000D03*
X66031155Y-67031155D03*
X66800000Y-65175000D03*
D10*
X64175000Y-65175000D03*
D21*
X193363925Y-114280000D02*
X193228734Y-114144809D01*
D22*
X200900000Y-114280000D02*
X193100000Y-114280000D01*
X172000000Y-92000000D02*
X172000000Y-104100000D01*
D21*
X172000000Y-104000000D02*
X172100000Y-104100000D01*
D22*
X172000000Y-104100000D02*
X208520000Y-104100000D01*
X208520000Y-104100000D02*
X208520000Y-114280000D01*
D21*
X208600000Y-104100000D02*
X208520000Y-104180000D01*
D22*
X200900000Y-116820000D02*
X164700000Y-116820000D01*
X164700000Y-116820000D02*
X164700000Y-122700000D01*
X143700000Y-128200000D02*
X143700000Y-125450000D01*
X143700000Y-125450000D02*
X193228734Y-125450000D01*
X193228734Y-125450000D02*
X193228734Y-121900000D01*
D21*
X193200000Y-125400000D02*
X193228734Y-125371266D01*
D23*
X134025000Y-92000000D02*
X134025000Y-65175000D01*
D21*
X134300000Y-92000000D02*
X134025000Y-91725000D01*
D23*
X162000000Y-92000000D02*
X134025000Y-92000000D01*
X139500000Y-128200000D02*
X123000000Y-128200000D01*
D24*
X152000000Y-53000000D02*
X152000000Y-62000000D01*
D21*
X151900000Y-54900000D02*
X152000000Y-55000000D01*
D23*
X157000000Y-62000000D02*
X157000000Y-53000000D01*
X147000000Y-62000000D02*
X147000000Y-53000000D01*
D21*
X147000000Y-55900000D02*
X146900000Y-55800000D01*
D24*
X123000000Y-55800000D02*
X157000000Y-55800000D01*
D23*
X123000000Y-53000000D02*
X157000000Y-53000000D01*
X123000000Y-128200000D02*
X123000000Y-53000000D01*
X127500000Y-121600000D02*
X133500000Y-127600000D01*
D22*
X102908100Y-53908960D02*
X122091040Y-53908960D01*
D23*
X157000000Y-62000000D02*
X147000000Y-62000000D01*
D24*
X157000000Y-58800000D02*
X147000000Y-58800000D01*
X123000000Y-58900000D02*
X157000000Y-58900000D01*
X125700000Y-128200000D02*
X125700000Y-53000000D01*
D23*
X128000000Y-128200000D02*
X128000000Y-53000000D01*
X128300000Y-117900000D02*
X138300000Y-127900000D01*
M02*
