M48
; DRILL file {KiCad (6.0.6)} date Thu Dec 15 15:42:20 2022
; FORMAT={-:-/ absolute / inch / decimal}
; #@! TF.CreationDate,2022-12-15T15:42:20-06:00
; #@! TF.GenerationSoftware,Kicad,Pcbnew,(6.0.6)
; #@! TF.FileFunction,Plated,1,2,PTH
FMAT,2
INCH
; #@! TA.AperFunction,Plated,PTH,ComponentDrill
T1C0.0197
; #@! TA.AperFunction,Plated,PTH,ComponentDrill
T2C0.0315
; #@! TA.AperFunction,Plated,PTH,ComponentDrill
T3C0.0394
; #@! TA.AperFunction,Plated,PTH,ComponentDrill
T4C0.0512
; #@! TA.AperFunction,Plated,PTH,ComponentDrill
T5C0.0551
; #@! TA.AperFunction,Plated,PTH,ComponentDrill
T6C0.1378
%
G90
G05
T1
X2.4232Y-2.5659
X2.4535Y-2.4929
X2.4535Y-2.639
X2.5266Y-2.4626
X2.5266Y-2.6693
X2.5997Y-2.4929
X2.5997Y-2.639
X2.6299Y-2.5659
X5.1732Y-2.5659
X5.2035Y-2.4929
X5.2035Y-2.639
X5.2766Y-2.4626
X5.2766Y-2.6693
X5.3497Y-2.4929
X5.3497Y-2.639
X5.3799Y-2.5659
T2
X7.6074Y-4.4992
X7.6074Y-4.7992
X7.9094Y-4.4992
X7.9094Y-4.5992
X7.9094Y-4.6992
X7.9094Y-4.7992
X7.9094Y-4.8992
X7.9094Y-4.9992
X7.9094Y-5.0992
X8.2094Y-4.4992
X8.2094Y-4.5992
X8.2094Y-4.6992
X8.2094Y-4.7992
X8.2094Y-4.8992
X8.2094Y-4.9992
X8.2094Y-5.0992
T3
X3.9515Y-2.1224
X4.0515Y-2.1224
T4
X5.7874Y-2.4409
X5.7874Y-3.622
X5.9843Y-2.4409
X5.9843Y-3.622
X6.1811Y-2.4409
X6.1811Y-3.622
X6.378Y-2.4409
X6.378Y-3.622
X6.5748Y-2.4409
X6.5748Y-3.622
X6.7717Y-2.4409
X6.7717Y-3.622
X6.9685Y-2.4409
X6.9685Y-3.622
T5
X5.4921Y-4.8307
X5.4921Y-5.0472
X5.6575Y-4.8307
X5.6575Y-5.0472
X5.8228Y-4.8307
X5.8228Y-5.0472
X5.9882Y-4.8307
X5.9882Y-5.0472
X6.1535Y-4.8307
X6.1535Y-5.0472
X6.3189Y-4.8307
X6.3189Y-5.0472
X6.4843Y-4.8307
X6.4843Y-5.0472
X6.6496Y-4.8307
X6.6496Y-5.0472
X6.815Y-4.8307
X6.815Y-5.0472
X6.9803Y-4.8307
X6.9803Y-5.0472
T6
X2.5266Y-2.5659
X5.2766Y-2.5659
T0
M30
